<svg width="26" height="26" viewBox="0 0 26 26" fill="none" xmlns="http://www.w3.org/2000/svg">
<path d="M8.37346 1.25031C7.98246 0.305819 6.95165 -0.196893 5.96653 0.0722356L1.49798 1.29093C0.614426 1.53467 0 2.33698 0 3.251C0 15.8137 10.1863 26 22.749 26C23.663 26 24.4653 25.3856 24.7091 24.502L25.9278 20.0335C26.1969 19.0484 25.6942 18.0175 24.7497 17.6265L19.8749 15.5954C19.0472 15.2501 18.0875 15.4887 17.5238 16.1844L15.4724 18.6878C11.8975 16.9969 9.00312 14.1025 7.31218 10.5276L9.81558 8.48124C10.5113 7.91252 10.7499 6.95787 10.4046 6.13017L8.37346 1.25539V1.25031Z" fill="#370040"/>
</svg>
