<svg width="24" height="28" viewBox="0 0 24 28" fill="none" xmlns="http://www.w3.org/2000/svg">
<path d="M12 13.8947C13.8186 13.8947 15.5628 13.1628 16.8487 11.8599C18.1347 10.557 18.8571 8.78993 18.8571 6.94737C18.8571 5.10481 18.1347 3.33772 16.8487 2.03484C15.5628 0.731953 13.8186 0 12 0C10.1814 0 8.43723 0.731953 7.15127 2.03484C5.8653 3.33772 5.14286 5.10481 5.14286 6.94737C5.14286 8.78993 5.8653 10.557 7.15127 11.8599C8.43723 13.1628 10.1814 13.8947 12 13.8947ZM9.55179 16.5C4.275 16.5 0 20.8312 0 26.1775C0 27.0676 0.7125 27.7895 1.59107 27.7895H22.4089C23.2875 27.7895 24 27.0676 24 26.1775C24 20.8312 19.725 16.5 14.4482 16.5H9.55179Z" fill="#370040"/>
</svg>
